<svg xmlns="http://www.w3.org/2000/svg" width="512" height="512" viewBox="0 0 512 512"><title>  plus</title><desc>  Created with Sketch.</desc><g fill="#fff"><path d="M157.3 237.1C161.6 233 166.8 230.5 173.1 229.8 179.4 229.1 185.7 228.9 192.1 229.1 198.4 229.4 204.4 229.3 209.9 228.9 215.4 228.5 219 227.2 220.7 225 221.8 223.4 222.9 218.4 223.9 209.8 224.9 201.3 226 192.8 227.2 184.4 228.3 176 231.6 168.3 236.8 161.3 242.1 154.3 249.1 150.9 257.9 151 264.2 151.2 269.3 152.5 273.1 155 276.9 157.6 279.6 161.3 281.1 166.2 282.6 171.2 283.6 176 284.1 180.6 284.5 185.2 284.9 191.2 285.1 198.5 285.4 205.8 285.8 211.6 286.4 215.8 287.8 224.5 297.5 228.8 315.4 228.8 332.7 228.9 344.7 231 351.7 235 358.6 239 362 245.2 362 253.5 362 257 361.6 260.2 360.8 263.2 360.1 266.1 359.1 268.7 358 270.8 356.9 272.9 355.3 274.9 353.2 276.7 351.1 278.5 349.1 280 347.4 281.2 345.7 282.4 343.3 283.4 340.4 284.2 337.4 285.1 334.9 285.8 332.8 286.4 330.8 286.9 327.9 287.4 324.3 287.8 320.7 288.2 317.9 288.4 316 288.5 314 288.6 311.1 288.7 307.1 289 303.2 289.2 300.5 289.4 298.9 289.5 294.5 289.5 291.3 292.1 289.2 297.1 287.2 302.1 285.8 308.1 285.1 315.1 284.4 322.1 283.4 329.1 282.2 336.1 280.9 343.1 278 348.9 273.6 353.6 269.1 358.3 262.8 360.4 254.6 360 250.8 359.5 247.5 358.2 244.6 356.1 241.7 354 239.3 351 237.5 347.3 235.7 343.5 234.2 339.9 233.1 336.5 231.9 333.2 231 328.8 230.4 323.5 229.7 318.1 229.3 314.1 229.1 311.3 228.8 308.6 228.6 304.9 228.5 300.1 228.2 295.6 225.2 292.2 219.8 290 214.3 287.8 207.7 286.3 200.1 285.4 192.5 284.6 184.9 283.4 177.4 282 169.8 280.6 163.5 277.7 158.3 273.4 153.1 269.1 150.6 263.1 150.7 255.4 150.9 247.4 153.1 241.3 157.3 237.1Z"/></g></svg>